<svg width="18" height="15" viewBox="0 0 18 15" fill="none" xmlns="http://www.w3.org/2000/svg">
<path d="M18 1.80006C18 1.32267 17.8104 0.864834 17.4728 0.527269C17.1352 0.189703 16.6774 6.10352e-05 16.2 6.10352e-05H1.8C1.32261 6.10352e-05 0.864773 0.189703 0.527208 0.527269C0.189642 0.864834 0 1.32267 0 1.80006V12.6001C0 13.0774 0.189642 13.5353 0.527208 13.8729C0.864773 14.2104 1.32261 14.4001 1.8 14.4001H16.2C16.6774 14.4001 17.1352 14.2104 17.4728 13.8729C17.8104 13.5353 18 13.0774 18 12.6001V1.80006ZM15.75 12.6001H14.85C14.7307 12.6001 14.6162 12.5526 14.5318 12.4683C14.4474 12.3839 14.4 12.2694 14.4 12.1501V3.93306L9.378 7.95606C9.26811 8.03876 9.13706 8.08868 9 8.10006H8.838C8.6854 8.09752 8.53745 8.04715 8.415 7.95606L3.6 4.13106V12.1501C3.6 12.2694 3.55259 12.3839 3.4682 12.4683C3.38381 12.5526 3.26935 12.6001 3.15 12.6001H2.25C2.13065 12.6001 2.01619 12.5526 1.9318 12.4683C1.84741 12.3839 1.8 12.2694 1.8 12.1501V2.25006C1.8 2.13071 1.84741 2.01625 1.9318 1.93186C2.01619 1.84747 2.13065 1.80006 2.25 1.80006H3.249C3.45201 1.80124 3.64865 1.87102 3.807 1.99806L8.874 6.04806L13.95 1.99806C14.1083 1.87102 14.305 1.80124 14.508 1.80006H15.75C15.8693 1.80006 15.9838 1.84747 16.0682 1.93186C16.1526 2.01625 16.2 2.13071 16.2 2.25006V12.1501C16.2 12.2694 16.1526 12.3839 16.0682 12.4683C15.9838 12.5526 15.8693 12.6001 15.75 12.6001Z" fill="#08CFAB"/>
</svg>
